<svg xmlns="http://www.w3.org/2000/svg" xml:space="preserve" width="272.82" height="27.35" viewBox="0 0 24.06 2.41"><path fill="#ffc06c" d="M14.56.86c-.2.23-.3.4-.3.52 0 .1.1.27.28.49l-.05.08a.49.49 0 0 0-.24-.08c-.09 0-.13.05-.13.15 0 .1.05.21.14.32l-.05.07c-.26-.19-.39-.36-.39-.51 0-.08.03-.14.08-.18a.28.28 0 0 1 .19-.06c.05 0 .1 0 .17.03l-.4-.52c.19-.17.28-.32.28-.45 0-.1-.06-.24-.19-.4h.16l.45.54"/><path fill="#fe8300" d="M1.08 2.25a4.74 4.74 0 0 1 .21-1.5C1.17.7 1.15.7.98.7.4.72.02 1.24.03 1.76c0 .24.1.51.32.51.2 0 .4-.08.55-.36l-.02.34zm-.1-.87c-.07.4-.4.74-.57.74-.16 0-.21-.25-.21-.42 0-.35.3-.76.63-.8a.8.8 0 0 1 .23 0zM1.82 0h-.15v2.25h.15v-.63l.16-.17.62.8h.18l-.7-.89.62-.63h-.2l-.54.57-.14.16zm1.41 0h-.15v2.25h.15v-.63l.16-.17.62.8h.19l-.7-.89.61-.63h-.18l-.54.57-.15.16zm1.83.7c-.38 0-.72.28-.72.8 0 .48.3.79.7.79.33 0 .72-.25.72-.81 0-.47-.28-.78-.7-.78zm0 .12c.4 0 .55.39.55.67 0 .39-.25.67-.57.67-.3 0-.55-.28-.55-.66 0-.33.17-.68.56-.68zm1.09 1.43h.15v-.84l.01-.14c.04-.25.2-.43.4-.43h.08V.7a.4.4 0 0 0-.07 0c-.2 0-.36.15-.43.34L6.27.73h-.14v.46zM8.12 0v.97H8.1C8.04.83 7.88.7 7.61.7c-.37 0-.69.31-.68.82 0 .46.28.77.65.77a.6.6 0 0 0 .55-.32l.02.28h.13l-.01-.35V0zm0 1.64c0 .05 0 .08-.02.13a.5.5 0 0 1-.49.4c-.36 0-.53-.32-.53-.66 0-.4.2-.69.54-.69a.49.49 0 0 1 .5.51zm1.8-.16.01-.1c0-.21-.1-.68-.6-.68-.38 0-.68.31-.68.82 0 .45.28.77.71.77a1 1 0 0 0 .48-.1l-.03-.12a.89.89 0 0 1-.43.09c-.31 0-.58-.2-.58-.68zm-1.11-.12c.03-.24.17-.54.51-.54.37 0 .46.32.45.54zM10.9.7c-.37 0-.72.28-.72.8 0 .48.3.79.7.79.34 0 .73-.25.73-.81 0-.47-.28-.78-.7-.78zm0 .12c.4 0 .56.39.56.67 0 .39-.25.67-.57.67-.31 0-.55-.28-.55-.66 0-.33.17-.68.56-.68zM12 2.25h.15v-.94l.02-.14c.06-.2.24-.34.46-.34.31 0 .42.25.42.52v.9h.15v-.91c0-.57-.39-.64-.53-.64a.58.58 0 0 0-.52.3h-.01l-.01-.27H12v.37zM15.15.74l.21 1.51h.16l.8-1.51h-.23l-.4.75-.17.44-.04-.45-.13-.74zm1.65 1.51V.73h-.16v1.52zM16.72.16c-.07 0-.12.07-.12.14s.04.13.11.13c.08 0 .13-.06.13-.13 0-.08-.05-.14-.12-.14zm.58 2.1h.16V1.4l.01-.14c.04-.25.19-.43.4-.43h.07V.7a.4.4 0 0 0-.06 0c-.2 0-.37.15-.43.34h-.01V.73h-.15l.01.46zm1.08-1.8v.27h-.25v.12h.25v.97c0 .15.03.28.1.36.06.07.15.1.26.1.1 0 .16 0 .21-.03l-.02-.11a.57.57 0 0 1-.17.02c-.16 0-.22-.12-.22-.32V.85h.43V.73h-.43V.39zm2.1.27h-.15v.95c0 .06-.01.12-.03.17a.5.5 0 0 1-.45.3c-.3 0-.4-.23-.4-.56V.73h-.15v.89c0 .57.32.67.52.67.27 0 .44-.17.52-.3l.01.26h.15a4.57 4.57 0 0 1-.02-.37zm1.1-.03c-.37 0-.71.28-.71.8 0 .48.3.79.7.79.34 0 .73-.25.73-.81 0-.48-.3-.78-.71-.78zm0 .12c.4 0 .56.39.56.67 0 .39-.25.67-.56.67-.32 0-.56-.28-.56-.66 0-.33.17-.68.56-.68zm.99 1.36c.1.06.24.1.38.1.31 0 .52-.17.52-.43 0-.23-.15-.35-.4-.45-.2-.09-.31-.16-.31-.31 0-.14.1-.27.3-.27.15 0 .25.06.3.1l.06-.13a.6.6 0 0 0-.34-.1c-.3 0-.47.2-.47.42 0 .18.14.32.39.41.22.1.32.18.32.35 0 .16-.12.29-.36.29a.67.67 0 0 1-.34-.1zm1.45.07V.73h-.15v1.52zM23.94.16c-.07 0-.12.07-.12.14s.05.13.12.13c.08 0 .12-.06.12-.13 0-.08-.05-.14-.12-.14z" aria-label="akkordeon virtuosi" style="white-space:pre"/></svg>