<?xml version="1.0" encoding="UTF-8"?>
<!-- Created with Inkscape (http://www.inkscape.org/) -->
<svg width="72.183mm" height="7.237mm" version="1.1" viewBox="0 0 24.061 2.4123" xml:space="preserve" xmlns="http://www.w3.org/2000/svg"><g transform="translate(-.34737 -.086844)"><path d="m14.904 0.95158c-0.19185 0.22869-0.28777 0.39955-0.28777 0.51258 0 0.10909 0.09132 0.27272 0.27397 0.4909l-0.05716 0.08083c-0.09198-0.05389-0.17082-0.08083-0.23652-0.08083-0.08541 0-0.12812 0.05126-0.12812 0.15378-1e-6 0.10514 0.04665 0.20963 0.13994 0.31346l-0.05125 0.07689c-0.25886-0.19189-0.38829-0.36275-0.38829-0.51258 0-0.07623 0.02628-0.13669 0.07884-0.18138 0.04862-0.04206 0.11169-0.06309 0.18922-0.06309 0.04993 0 0.10512 0.01314 0.16557 0.03943l-0.39617-0.52638c0.1879-0.1656 0.28186-0.31543 0.28186-0.44949 0-0.10646-0.06373-0.24052-0.19119-0.40218h0.15768l0.4494 0.54807" fill="#ffc06c"/><g transform="matrix(.26458 0 0 .26458 -4.1283 -12.817)" fill="#fe8300" stroke-width="0" style="white-space:pre" aria-label="akkordeon  virtuosi"><path d="m20.981 57.292c-0.024-0.696 0.05585-1.7823 0.177-2.664 0.14132-1.0284 0.63935-3.048 0.63935-3.048-0.456-0.144-0.5512-0.13425-1.1871-0.12226-2.177 0.04103-3.6148 1.9825-3.5851 3.9743 0.01368 0.91616 0.3856 1.934 1.1971 1.934 0.744 0 1.524-0.31398 2.1-1.382h0.024c-0.048 0.492-0.096 0.96-0.096 1.308zm-0.35068-3.3c-0.276 1.488-1.5032 2.7785-2.1632 2.7785-0.612 0-0.80132-0.94952-0.80132-1.5615 0-1.332 1.1279-2.8713 2.3984-3.0571 0.32722-0.04787 0.72211-0.0477 0.86611-0.01168z"/><path d="m23.797 48.772h-0.576v8.52h0.576v-2.4l0.588-0.624 2.352 3.024h0.696l-2.652-3.372 2.328-2.388h-0.696l-2.04 2.136c-0.18 0.192-0.408 0.456-0.552 0.636h-0.024zm5.34 0h-0.576v8.52h0.576v-2.4l0.588-0.624 2.352 3.024h0.696l-2.652-3.372 2.328-2.388h-0.696l-2.04 2.136c-0.18 0.192-0.408 0.456-0.552 0.636h-0.024zm6.888 2.628c-1.428 0-2.724 1.092-2.724 3.06 0 1.8 1.152 2.964 2.64 2.964 1.284 0 2.76-0.924 2.76-3.072 0-1.752-1.08-2.952-2.676-2.952zm-0.012 0.48c1.524 0 2.112 1.452 2.112 2.508 0 1.476-0.948 2.556-2.148 2.556-1.176 0-2.1-1.08-2.1-2.52 0-1.236 0.66-2.544 2.136-2.544zm4.14 5.412h0.576v-3.18c0-0.192 0.012-0.384 0.048-0.552 0.156-0.924 0.72-1.608 1.512-1.608 0.108 0 0.192 0 0.276 0.024v-0.552c-0.072-0.012-0.156-0.024-0.24-0.024-0.78 0-1.38 0.576-1.632 1.296h-0.036l-0.024-1.164h-0.528c0.036 0.564 0.048 1.152 0.048 1.728zm7.44-8.52v3.648h-0.024c-0.252-0.504-0.888-1.02-1.884-1.02-1.416 0-2.604 1.2-2.592 3.12 0 1.716 1.056 2.904 2.484 2.904 1.068 0 1.752-0.588 2.052-1.224h0.024l0.048 1.092h0.516c-0.036-0.408-0.048-0.912-0.048-1.344v-7.176zm0 6.192c0 0.18-0.012 0.324-0.06 0.48-0.24 0.948-1.02 1.5-1.848 1.5-1.368 0-2.016-1.188-2.016-2.484 0-1.488 0.792-2.58 2.052-2.58 0.936 0 1.62 0.636 1.812 1.404 0.048 0.156 0.06 0.372 0.06 0.528zm6.84-0.612c0.024-0.108 0.024-0.192 0.024-0.348 0-0.828-0.36-2.604-2.244-2.604-1.488 0-2.592 1.2-2.592 3.12 0 1.692 1.032 2.892 2.688 2.892 1.008 0 1.596-0.252 1.812-0.372l-0.144-0.444c-0.324 0.156-0.756 0.324-1.596 0.324-1.2 0-2.196-0.732-2.196-2.568zm-4.224-0.456c0.108-0.888 0.66-2.016 1.932-2.016 1.392 0 1.728 1.212 1.716 2.016zm7.956-2.496c-1.428 0-2.724 1.092-2.724 3.06 0 1.8 1.152 2.964 2.64 2.964 1.284 0 2.76-0.924 2.76-3.072 0-1.752-1.08-2.952-2.676-2.952zm-0.012 0.48c1.524 0 2.112 1.452 2.112 2.508 0 1.476-0.948 2.556-2.148 2.556-1.176 0-2.1-1.08-2.1-2.52 0-1.236 0.66-2.544 2.136-2.544zm4.152 5.412h0.576v-3.564c0-0.18 0.036-0.372 0.072-0.516 0.228-0.744 0.924-1.32 1.728-1.32 1.188 0 1.596 0.948 1.596 1.992v3.408h0.576v-3.456c0-2.16-1.464-2.436-2.016-2.436-0.936 0-1.668 0.528-1.98 1.176h-0.024l-0.036-1.044h-0.54c0.036 0.456 0.048 0.852 0.048 1.38z"/><path d="m74.171 51.55 0.79907 5.7414h0.61718l3.0055-5.7414h-0.85319l-1.4907 2.8374c-0.324 0.696-0.51134 1.2901-0.65534 1.6621h-0.036c-0.036-0.384-0.07666-1.0021-0.14866-1.6981l-0.4687-2.8014z"/><path d="m80.401 57.292v-5.76h-0.576v5.76zm-0.288-7.908c-0.264 0-0.468 0.24-0.468 0.504s0.18 0.492 0.444 0.492c0.3 0 0.48-0.228 0.48-0.492 0-0.276-0.192-0.504-0.456-0.504zm2.208 7.908h0.576v-3.18c0-0.192 0.012-0.384 0.048-0.552 0.156-0.924 0.72-1.608 1.512-1.608 0.108 0 0.192 0 0.276 0.024v-0.552c-0.072-0.012-0.156-0.024-0.24-0.024-0.78 0-1.38 0.576-1.632 1.296h-0.036l-0.024-1.164h-0.528c0.036 0.564 0.048 1.152 0.048 1.728zm4.08-6.816v1.056h-0.972v0.468h0.972v3.636c0 0.588 0.096 1.08 0.36 1.38 0.216 0.276 0.564 0.408 0.984 0.408 0.348 0 0.612-0.06 0.804-0.144l-0.072-0.432c-0.144 0.048-0.36 0.084-0.66 0.084-0.612 0-0.84-0.456-0.84-1.188v-3.744h1.644v-0.468h-1.644v-1.272zm7.932 1.056h-0.576v3.588c0 0.228-0.048 0.456-0.108 0.636-0.252 0.576-0.864 1.164-1.704 1.164-1.14 0-1.524-0.9-1.524-2.148v-3.24h-0.576v3.348c0 2.172 1.236 2.544 1.968 2.544 1.02 0 1.68-0.624 1.968-1.164h0.024l0.036 1.032h0.54c-0.036-0.444-0.048-0.9-0.048-1.404zm4.176-0.132c-1.428 0-2.724 1.092-2.724 3.06 0 1.8 1.152 2.964 2.64 2.964 1.284 0 2.76-0.924 2.76-3.072 0-1.752-1.08-2.952-2.676-2.952zm-0.012 0.48c1.524 0 2.112 1.452 2.112 2.508 0 1.476-0.948 2.556-2.148 2.556-1.176 0-2.1-1.08-2.1-2.52 0-1.236 0.66-2.544 2.136-2.544zm3.708 5.136c0.384 0.24 0.912 0.396 1.464 0.396 1.176 0 1.944-0.66 1.944-1.644 0-0.876-0.552-1.344-1.488-1.704-0.78-0.324-1.188-0.588-1.188-1.188 0-0.528 0.384-0.996 1.116-0.996 0.576 0 0.948 0.204 1.152 0.348l0.216-0.468c-0.288-0.204-0.744-0.36-1.272-0.36-1.116 0-1.776 0.732-1.776 1.56 0 0.696 0.516 1.212 1.464 1.572 0.828 0.336 1.212 0.672 1.212 1.308 0 0.6-0.432 1.092-1.344 1.092-0.516 0-0.984-0.204-1.296-0.396zm5.496 0.276v-5.76h-0.576v5.76zm-0.288-7.908c-0.264 0-0.468 0.24-0.468 0.504s0.18 0.492 0.444 0.492c0.3 0 0.48-0.228 0.48-0.492 0-0.276-0.192-0.504-0.456-0.504z"/></g></g></svg>
